<svg t="1669813546314" class="icon" viewBox="0 0 1024 1024" version="1.1" xmlns="http://www.w3.org/2000/svg" p-id="2705" width="200" height="200"><path d="M311.25 344.563h36.699c4.655 22.876 14.22 43.899 27.208 62.334l-26.032 26.044c-13.015 13.019-13.015 34.102 0 47.121 13.012 13.014 34.101 13.014 47.113 0l27.597-27.578c16.431 10.184 34.459 18.007 54.014 21.992v36.69c0 18.419 14.903 33.325 33.323 33.325 18.413 0 33.319-14.905 33.319-33.325v-36.69c21.834-4.44 42.104-13.178 59.938-25.265l26.225 26.23c13.018 13.013 34.101 13.013 47.122 0 13.014-13.02 13.014-34.135 0-47.154l-26.878-26.895c11.061-17.098 19.29-36.197 23.489-56.831h36.707c18.418 0 33.317-14.898 33.317-33.318 0-18.419-14.899-33.319-33.317-33.319h-36.707c-4.068-20.014-12.071-38.509-22.645-55.223l27.135-27.135c13.018-13.013 13.018-34.101 0-47.116-13.015-13.02-34.097-13.02-47.118 0l-25.966 25.968c-18.19-12.631-38.882-21.835-61.303-26.408v-36.688c0-18.42-14.906-33.324-33.319-33.324-18.419 0-33.323 14.904-33.323 33.324v36.688c-21.217 4.326-40.9 12.801-58.375 24.373l-26.192-26.181c-12.981-13.013-34.105-13.013-47.117 0-13.018 13.015-13.018 34.104 0 47.116l26.19 26.182c-11.614 17.47-20.106 37.178-24.404 58.424h-36.7c-18.419 0-33.326 14.9-33.326 33.319-0.001 18.422 14.907 33.32 33.326 33.32z m199.92-133.279c55.118 0 99.961 44.841 99.961 99.961s-44.844 99.961-99.961 99.961c-55.126 0-99.96-44.841-99.96-99.961s44.834-99.961 99.96-99.961zM877.694 677.77h-33.322v-66.643c0-18.412-14.901-33.319-33.319-33.319H211.284c-18.415 0-33.32 14.907-33.32 33.319v66.643h-33.317c-36.807 0-66.643 29.837-66.643 66.642V877.69c0 36.807 29.836 66.643 66.643 66.643h133.276c36.807 0 66.645-29.836 66.645-66.643V744.411c0-36.805-29.838-66.642-66.645-66.642h-33.316V644.45h533.127v33.319H744.41c-36.801 0-66.636 29.837-66.636 66.642V877.69c0 36.807 29.835 66.643 66.636 66.643h133.284c36.8 0 66.638-29.836 66.638-66.643V744.411c0-36.805-29.838-66.641-66.638-66.641z" p-id="2706"></path></svg>