<svg t="1668934110264" class="icon" viewBox="0 0 1024 1024" version="1.1" xmlns="http://www.w3.org/2000/svg" p-id="3600" width="200" height="200"><path d="M311.2 288H682v64H311.2zM311.2 480H682v64H311.2zM311.2 672H682v64H311.2z" fill="#47444F" p-id="3601"></path><path d="M960 512c0-59.4-39.5-109.1-92.7-123.4V192c0-52.9-41.6-96-92.7-96H218.5c-51.1 0-92.7 43.1-92.7 96v160H64v64h61.8v192H64v64h61.8v160c0 52.9 41.6 96 92.7 96h556.1c51.1 0 92.7-43.1 92.7-96V635.4c53.2-14.3 92.7-64 92.7-123.4zM774.6 864H218.5c-17 0-30.9-14.4-30.9-32V672h61.8v-64h-61.8V416h61.8v-64h-61.8V192c0-17.6 13.8-32 30.9-32h556.1c17 0 30.9 14.4 30.9 32v196.6c-53.2 14.3-92.7 64-92.7 123.4s39.5 109.1 92.7 123.4V832c0 17.6-13.8 32-30.9 32z m61.8-288c-34.1 0-61.8-28.7-61.8-64s27.7-64 61.8-64c34.1 0 61.8 28.7 61.8 64s-27.7 64-61.8 64z" fill="#47444F" p-id="3602"></path></svg>