<svg xmlns="http://www.w3.org/2000/svg" version="1.1" xmlns:xlink="http://www.w3.org/1999/xlink" xmlns:svgjs="http://svgjs.dev/svgjs" width="1000" height="999" viewBox="0 0 1000 999"><g transform="matrix(1,0,0,1,-0.215743440233382,-0.21552769679306039)"><svg viewBox="0 0 343 343" data-background-color="#ffffff" preserveAspectRatio="xMidYMid meet" height="999" width="1000" xmlns="http://www.w3.org/2000/svg" xmlns:xlink="http://www.w3.org/1999/xlink"><defs></defs><g id="tight-bounds" transform="matrix(1,0,0,1,0.0740000000000407,0.07400000000001228)"><svg viewBox="0 0 342.85155851775386 342.85155851775386" height="342.85155851775386" width="342.85155851775386"><g><svg></svg></g><g><svg viewBox="0 0 342.85155851775386 342.85155851775386" height="342.85155851775386" width="342.85155851775386"><g><path d="M0 171.426c0-94.676 76.75-171.426 171.426-171.426 94.676 0 171.426 76.75 171.426 171.426 0 94.676-76.75 171.426-171.426 171.426-94.676 0-171.426-76.75-171.426-171.426zM171.426 326.773c85.796 0 155.347-69.551 155.347-155.347 0-85.796-69.551-155.347-155.347-155.348-85.796 0-155.347 69.551-155.348 155.348 0 85.796 69.551 155.347 155.348 155.347z" data-fill-palette-color="tertiary" fill="#fe7c03" stroke="transparent"></path><ellipse rx="164.56874808852186" ry="164.56874808852186" cx="171.42577925887693" cy="171.42577925887693" fill="#fe7c03" stroke="transparent" stroke-width="0" fill-opacity="1" data-fill-palette-color="tertiary"></ellipse></g><g transform="matrix(1,0,0,1,64.84655864529837,82.28017139214838)"><svg viewBox="0 0 213.1584412271571 178.2912157334571" height="178.2912157334571" width="213.1584412271571"><g><svg viewBox="0 0 213.1584412271571 178.2912157334571" height="178.2912157334571" width="213.1584412271571"><g><svg viewBox="0 0 213.1584412271571 178.2912157334571" height="178.2912157334571" width="213.1584412271571"><g><svg viewBox="0 0 213.1584412271571 178.2912157334571" height="178.2912157334571" width="213.1584412271571"><g><svg viewBox="0 0 213.1584412271571 178.2912157334571" height="178.2912157334571" width="213.1584412271571"><g><svg viewBox="0 0 213.1584412271571 178.2912157334571" height="178.2912157334571" width="213.1584412271571"><g transform="matrix(1,0,0,1,0,0)"><svg width="213.1584412271571" viewBox="1.83 -41.33 50 41.82" height="178.2912157334571" data-palette-color="#ffffff"><path d="M13.79-0.32L13.79-0.32Q12.52 0.49 10.95 0.49 9.38 0.49 8.13-0.29L8.13-0.29Q6.88 0.49 5.82 0.49 4.76 0.49 4.08 0.31 3.39 0.12 2.88-0.2L2.88-0.2Q1.83-0.83 1.83-1.78L1.83-1.78Q1.83-2.27 2.1-2.64L2.1-2.64Q2.64-2.22 3.47-2.22L3.47-2.22Q5.64-2.22 6.47-4.08L6.47-4.08 6.47-16.02Q6.47-17.14 6.01-17.68L6.01-17.68Q5.27-18.58 3.49-19.46L3.49-19.46Q5.15-20.21 5.64-20.8L5.64-20.8Q6.47-21.75 6.47-22.95L6.47-22.95 6.47-33.25Q5.64-35.13 3.47-35.13L3.47-35.13Q2.64-35.13 2.1-34.72L2.1-34.72Q1.83-35.08 1.83-35.56 1.83-36.04 2.11-36.45 2.39-36.87 2.88-37.16L2.88-37.16Q4-37.84 5.46-37.84 6.91-37.84 8.13-37.04L8.13-37.04Q9.4-37.84 10.95-37.84 12.5-37.84 13.75-37.06L13.75-37.06Q16.16-38.09 19.2-38.09 22.24-38.09 24.46-37.38 26.68-36.67 28.47-35.4L28.47-35.4Q32.18-32.76 33.37-28.44L33.37-28.44Q33.86-26.76 35.69-25.68L35.69-25.68Q33.81-24.63 33.18-22.51 32.54-20.39 31.07-18.57 29.59-16.75 27.69-15.53L27.69-15.53Q23.8-13.04 19.43-13.04L19.43-13.04Q17.53-13.04 15.45-13.53L15.45-13.53 15.45-4.2Q16.11-2.78 18.16-2.34L18.16-2.34Q18.7-2.22 19.36-2.22 20.02-2.22 20.56-2.64L20.56-2.64Q20.83-2.27 20.83-1.79 20.83-1.32 20.47-0.9 20.12-0.49 19.53-0.2L19.53-0.2Q18.24 0.49 16.7 0.49 15.16 0.49 13.79-0.32ZM15.45-31.03L15.45-19.9Q15.45-18.24 16.67-17.24L16.67-17.24Q17.8-16.31 19.56-16.31L19.56-16.31Q22.24-16.31 23.44-18.36L23.44-18.36Q23.85-19.07 23.85-20.09L23.85-20.09 23.85-31.13Q23.85-32.89 22.51-33.89L22.51-33.89Q21.29-34.81 20.08-34.81 18.87-34.81 18.1-34.58 17.33-34.35 16.75-33.89L16.75-33.89Q15.45-32.86 15.45-31.03L15.45-31.03ZM25.44-17.38L25.44-17.38Q26-17.48 26.6-18.75 27.2-20.02 27.5-21.74 27.81-23.46 28.27-24.28 28.74-25.1 29.76-25.44L29.76-25.44Q28.08-26 27.64-28.43 27.2-30.86 26.6-32.01 26-33.15 25.44-33.25L25.44-33.25Q26.34-31.23 26.34-25.44L26.34-25.44Q26.34-21.58 25.95-19.63 25.56-17.68 25.44-17.38ZM8.81-9.64L8.81-6.47Q10.03-6.93 10.16-9.67L10.16-9.67Q10.3-12.4 10.3-17.24 10.3-22.07 10.29-23.67 10.28-25.27 10.25-26.25L10.25-26.25Q10.18-29.13 9.7-29.72 9.23-30.32 8.81-30.52L8.81-30.52Q8.81-22.02 8.52-20.85L8.52-20.85Q8.18-19.87 6.86-19.46L6.86-19.46Q8.33-18.95 8.52-18.21L8.52-18.21Q8.81-17.04 8.81-9.64L8.81-9.64ZM43.92-32.3L43.92-32.3Q42.67-32.3 41.51-32.96 40.35-33.62 39.74-34.72L39.74-34.72Q39.08-35.84 37.99-36.43L37.99-36.43Q37.64-36.6 37.2-36.79L37.2-36.79 38.03-37.3Q39.21-38.04 39.77-39.09 40.33-40.14 41.46-40.73 42.6-41.33 43.92-41.33L43.92-41.33Q46.65-41.33 47.87-39.04L47.87-39.04Q48.7-37.52 50.44-36.79L50.44-36.79Q50.07-36.57 49.72-36.4 49.36-36.23 49.05-36.01L49.05-36.01Q48.34-35.52 47.79-34.57 47.24-33.62 46.2-32.96 45.16-32.3 43.92-32.3ZM42.62-35.29Q42.48-35.55 42.39-35.9 42.31-36.25 42.31-37.16 42.31-38.06 43.23-39.45L43.23-39.45Q42.33-39.45 41.97-39.12 41.6-38.79 41.42-38.56 41.23-38.33 41.1-38.1 40.96-37.87 40.77-37.6L40.77-37.6Q40.31-36.94 40.01-36.79L40.01-36.79Q40.4-36.57 40.73-36.1 41.06-35.62 41.5-35.11L41.5-35.11Q42.16-34.3 43.23-34.3L43.23-34.3Q43.09-34.57 42.93-34.8 42.77-35.03 42.62-35.29ZM41.48-0.29L41.48-0.29Q40.35 0.49 38.93 0.49 37.5 0.49 36.8-0.15 36.11-0.78 36.11-1.37L36.11-1.37Q36.11-2.17 36.45-2.64L36.45-2.64Q36.98-2.22 38.03-2.22 39.08-2.22 39.84-3.59L39.84-3.59 39.84-11.38Q39.84-12.45 39.4-12.94L39.4-12.94Q38.69-13.67 36.86-14.58L36.86-14.58Q38.57-15.36 39.04-15.82L39.04-15.82Q39.84-16.63 39.84-17.8L39.84-17.8 39.84-21.36Q39.84-23.44 38.43-23.61L38.43-23.61Q38.01-23.66 37.38-23.66 36.74-23.66 36.2-23.24L36.2-23.24Q35.86-23.71 35.86-24.21 35.86-24.71 36.12-25.33 36.37-25.95 36.91-26.51L36.91-26.51Q38.18-27.83 39.84-27.83 41.5-27.83 42.84-27.25L42.84-27.25Q44.04-28.81 45.58-28.81L45.58-28.81Q48.09-28.81 48.09-26.17L48.09-26.17 48.09-17.8Q48.09-16.63 48.61-16.11L48.61-16.11Q49.36-15.36 51.07-14.58L51.07-14.58Q49.24-13.67 48.78-13.21L48.78-13.21Q48.09-12.45 48.09-11.38L48.09-11.38 48.09-3.52Q48.9-2.22 49.92-2.22 50.95-2.22 51.49-2.64L51.49-2.64Q51.83-2.17 51.83-1.48 51.83-0.78 51.13-0.15 50.44 0.49 49.05 0.49 47.65 0.49 46.46-0.29L46.46-0.29Q45.46 0.49 44.04 0.49 42.62 0.49 41.48-0.29ZM43.59-11.87Q43.6-12.7 43.61-13.26 43.63-13.82 43.63-14.16L43.63-14.16 43.63-14.82Q43.63-15.19 43.61-15.77 43.6-16.36 43.59-17.07 43.58-17.77 43.55-18.46L43.55-18.46Q43.45-20.14 43.31-20.78L43.31-20.78Q43.02-22.19 42.19-22.73L42.19-22.73 42.19-21.14Q42.19-17.02 42-16.3 41.82-15.58 41.42-15.22 41.01-14.87 40.23-14.6L40.23-14.6Q41.7-14.09 41.89-13.35L41.89-13.35Q42.19-12.18 42.19-8.06L42.19-8.06 42.19-6.47Q43.31-7.2 43.45-9.47L43.45-9.47Q43.58-11.04 43.59-11.87Z" opacity="1" transform="matrix(1,0,0,1,0,0)" fill="#ffffff" class="undefined-text-0" data-fill-palette-color="quaternary" id="text-0"></path></svg></g></svg></g></svg></g></svg></g></svg></g></svg></g></svg></g></svg></g></svg><rect width="342.85155851775386" height="342.85155851775386" fill="none" stroke="none" visibility="hidden"></rect></g></svg></g></svg>