<svg t="1669077338596" class="icon" viewBox="0 0 1024 1024" version="1.1" xmlns="http://www.w3.org/2000/svg" p-id="2011" width="200" height="200"><path d="M512 917.333333c-4.266667 0-8.106667-1.28-11.946667-3.413333-78.506667-51.626667-144.64-104.106667-197.12-156.16l-20.48-19.626667C195.413333 654.506667 64 528.64 64 358.4c0-138.666667 113.92-251.733333 253.866667-251.733333 60.16 0 118.613333 21.333333 164.693333 60.16 8.96 7.68 10.24 20.906667 2.56 29.866666-7.68 8.96-20.906667 10.24-29.866667 2.56-38.4-32-87.04-49.92-137.386666-49.92-116.48 0-211.2 93.866667-211.2 209.066667 0 151.893333 123.733333 270.506667 205.226666 348.586667l20.906667 20.053333c48.213333 47.36 108.373333 95.573333 179.2 143.36 70.826667-47.786667 130.986667-95.573333 178.773333-142.933333l14.933334-14.933334c78.933333-77.653333 211.2-207.36 211.2-354.133333 0-115.2-94.72-209.066667-211.2-209.066667-52.48 0-197.12 181.76-282.88 310.613334a21.248 21.248 0 0 1-35.413334-23.466667c36.693333-55.04 224.426667-329.386667 318.293334-329.386667 139.946667 0 253.866667 113.066667 253.866666 251.733334 0 164.266667-140.373333 302.08-224 384.426666l-14.933333 14.933334c-52.48 52.053333-119.04 104.533333-197.12 156.16a25.6 25.6 0 0 1-11.52 2.986666z" fill="#666666" p-id="2012"></path></svg>